# xmcd
#
# Track frame offsets:
# 150
# 13720
# 27223
# 38032
# 53310
# 68283
# 86910
# 104361
# 117363
# 127418
# 141219
# 159136
# 175323
#
# Disc length: 2556 seconds
#
#
# Revision: 0
# Processed by: cddbd v1.5.1PL2 Copyright (c) Steve Scherf et al.
# Submitted via: FreeRIP 2.945 
#
DISCID=a309fa0d
DTITLE=Hamilson and Hermano - Cada Detalhe
DYEAR=2206
DGENRE=Country
TTITLE0=Cai Nos Meus Braços
TTITLE1=Cheiro Na Vizinha
TTITLE2=O Pobre E O Rico
TTITLE3=Como Eu Chorei
TTITLE4=Amaremos
TTITLE5=Cada Detalhe
TTITLE6=Luz Da Minha Vida
TTITLE7=Mala Amarela
TTITLE8=Barbaridade
TTITLE9=Mundo No Avesso
TTITLE10=Boneca Cobiçada
TTITLE11=Caboclo Na Cidade
TTITLE12=O Milionário
EXTD=
EXTT0=
EXTT1=
EXTT2=
EXTT3=
EXTT4=
EXTT5=
EXTT6=
EXTT7=
EXTT8=
EXTT9=
EXTT10=
EXTT11=
EXTT12=
PLAYORDER=
